<svg xmlns="http://www.w3.org/2000/svg" width="923" height="200" class="o-svg" viewBox="0 0 923 200"><style>.svg__pipeline__text{fill:#1a1e23;font:20px Arial,sans-serif}.svg__pipeline__text-small{fill:#1a1e23;font:700 18px Arial,sans-serif}.svg__pipeline__text-code{fill:#1a1e23;font:600 16px Menlo,Monaco,Consolas,&quot;Liberation Mono&quot;,&quot;Courier New&quot;,monospace}</style><rect width="601" height="127" x="159" y="21" fill="none" stroke="#09a3d5" stroke-dasharray="3 6" stroke-width="3" rx="19.1" ry="19.1"/><path fill="#e1d5e7" stroke="#9673a6" stroke-width="2" d="M801 55h120v60H801z"/><text width="28" height="19" class="svg__pipeline__text" dy=".75em" transform="translate(846.5 75.5)">Doc</text><path fill="none" stroke="#999" stroke-miterlimit="10" stroke-width="2" d="M121.2 84.7h29.4"/><path fill="#999" stroke="#999" stroke-miterlimit="10" stroke-width="2" d="M156.6 84.7l-8 4 2-4-2-4z"/><path fill="#f5f5f5" stroke="#999" stroke-width="2" d="M1 55h120v60H1z"/><text width="34" height="22" class="svg__pipeline__text" dy=".85em" transform="translate(43.5 73.5)">Text</text><path fill="none" stroke="#999" stroke-miterlimit="10" stroke-width="2" d="M760 84.7h33"/><path fill="#999" stroke="#999" stroke-miterlimit="10" stroke-width="2" d="M799 84.7l-8 4 2-4-2-4z"/><rect width="75" height="39" x="422" y="1" fill="#dae8fc" stroke="#09a3d5" stroke-width="2" rx="5.8" ry="5.8"/><text width="29" height="17" class="svg__pipeline__text-code" dx=".1em" dy=".8em" transform="translate(444.5 11.5)">nlp</text><path fill="#f8cecc" stroke="#b85450" stroke-miterlimit="10" stroke-width="2" d="M176 58h103.3L296 88l-16.8 30H176l16.8-30z"/><text width="58" height="14" class="svg__pipeline__text-small" dx="-.25em" dy=".75em" transform="translate(206.5 80.5)">tokenizer</text><path fill="#ffe6cc" stroke="#d79b00" stroke-miterlimit="10" stroke-width="2" d="M314 58h103.3L434 88l-16.8 30H314l16.8-30z"/><text width="62" height="14" class="svg__pipeline__text-small" dx="8" dy=".75em" transform="translate(342.5 80.5)">tagger</text><path fill="none" stroke="#999" stroke-miterlimit="10" stroke-width="2" d="M296.5 88.2h24.7"/><path fill="#999" stroke="#999" stroke-miterlimit="10" stroke-width="2" d="M327.2 88.2l-8 4 2-4-2-4z"/><path fill="#ffe6cc" stroke="#d79b00" stroke-miterlimit="10" stroke-width="2" d="M416 58h103.3L536 88l-16.8 30H416l16.8-30z"/><text width="40" height="14" class="svg__pipeline__text-small" dx="-.25em" dy=".75em" transform="translate(455.5 80.5)">parser</text><path fill="#ffe6cc" stroke="#d79b00" stroke-miterlimit="10" stroke-width="2" d="M519 58h103.3L639 88l-16.8 30H519l16.8-30z"/><text width="40" height="14" class="svg__pipeline__text-small" dx="8" dy=".75em" transform="translate(558.5 80.5)">ner</text><path fill="#ffe6cc" stroke="#d79b00" stroke-miterlimit="10" stroke-width="2" d="M622 58h103.3L742 88l-16.8 30H622l16.8-30z"/><text width="20" height="14" class="svg__pipeline__text-small" dx="8" dy=".75em" transform="translate(671.5 80.5)">...</text></svg>